<?xml version="1.0" standalone="no"?>
<!DOCTYPE svg PUBLIC "-//W3C//DTD SVG 20010904//EN"
 "http://www.w3.org/TR/2001/REC-SVG-20010904/DTD/svg10.dtd">
<svg version="1.0" xmlns="http://www.w3.org/2000/svg"
 width="260.000000pt" height="260.000000pt" viewBox="0 0 260.000000 260.000000"
 preserveAspectRatio="xMidYMid meet">
<metadata>
Created by potrace 1.11, written by Peter Selinger 2001-2013
</metadata>
<g transform="translate(0.000000,260.000000) scale(0.100000,-0.100000)"
fill="#000000" stroke="none">
<path d="M0 1300 l0 -1300 1300 0 1300 0 0 1300 0 1300 -1300 0 -1300 0 0
-1300z m1050 74 c35 -8 92 -30 125 -49 56 -31 146 -112 167 -149 7 -13 24 -17
66 -17 31 0 111 0 177 -2 l120 -2 57 61 c91 97 217 154 340 154 93 0 159 -18
192 -52 19 -20 35 -28 49 -24 13 3 33 -6 58 -26 l39 -31 0 -126 -1 -126 -25
51 c-29 62 -97 127 -162 157 -69 32 -219 31 -281 -2 -186 -97 -242 -335 -118
-497 72 -94 204 -147 314 -125 113 22 197 84 248 181 l24 45 1 -121 c0 -119 0
-121 -27 -146 -149 -136 -401 -149 -573 -30 -61 43 -112 103 -180 212 -55 88
-81 110 -130 110 -33 0 -44 -7 -80 -47 -22 -26 -55 -73 -72 -105 -64 -120
-173 -211 -300 -249 -56 -17 -88 -21 -166 -17 -84 3 -107 8 -165 36 -38 17
-87 46 -108 63 l-39 31 0 116 0 116 28 -45 c70 -110 178 -169 310 -169 64 0
87 5 137 29 198 95 264 327 143 507 -84 125 -239 181 -384 138 -89 -26 -160
-84 -221 -180 -10 -15 -12 2 -12 93 -1 123 -2 121 72 171 106 73 246 97 377
66z"/>
</g>
</svg>
